<?xml version="1.0" encoding="UTF-8"?>
<!DOCTYPE svg PUBLIC "-//W3C//DTD SVG 1.1//EN" "http://www.w3.org/Graphics/SVG/1.1/DTD/svg11.dtd">
<svg xmlns="http://www.w3.org/2000/svg" version="1.1" width="48px" height="48px" style="shape-rendering:geometricPrecision; text-rendering:geometricPrecision; image-rendering:optimizeQuality; fill-rule:evenodd; clip-rule:evenodd" xmlns:xlink="http://www.w3.org/1999/xlink">
<g><path style="opacity:0.983" fill="#cfd8dc" d="M 12.5,13.5 C 12.5,12.8333 12.1667,12.5 11.5,12.5C 11.5,11.8333 11.1667,11.5 10.5,11.5C 10.5,10.8333 10.1667,10.5 9.5,10.5C 9.5,9.83333 9.16667,9.5 8.5,9.5C 8.5,8.83333 8.16667,8.5 7.5,8.5C 7.5,7.83333 7.16667,7.5 6.5,7.5C 6.38929,6.88258 6.05596,6.38258 5.5,6C 15.1667,5.33333 24.8333,5.33333 34.5,6C 36.8333,8.33333 39.1667,10.6667 41.5,13C 31.8391,13.4998 22.1724,13.6665 12.5,13.5 Z"/></g>
<g><path style="opacity:0.991" fill="#8ac24a" d="M 6.5,7.5 C 7.16667,7.5 7.5,7.83333 7.5,8.5C 8.16667,8.5 8.5,8.83333 8.5,9.5C 9.16667,9.5 9.5,9.83333 9.5,10.5C 10.1667,10.5 10.5,10.8333 10.5,11.5C 11.1667,11.5 11.5,11.8333 11.5,12.5C 12.1667,12.5 12.5,12.8333 12.5,13.5C 12.6665,22.8393 12.4998,32.1726 12,41.5C 10,39.5 8,37.5 6,35.5C 5.17569,25.9908 5.34235,16.6575 6.5,7.5 Z"/></g>
<g><path style="opacity:1" fill="#ced8db" d="M 14.5,15.5 C 23.5,15.5 32.5,15.5 41.5,15.5C 41.5,24.1667 41.5,32.8333 41.5,41.5C 32.5,41.5 23.5,41.5 14.5,41.5C 14.5,32.8333 14.5,24.1667 14.5,15.5 Z"/></g>
</svg>
