<svg version="1.1" id="Layer_1" xmlns="http://www.w3.org/2000/svg" xmlns:xlink="http://www.w3.org/1999/xlink" x="0px" y="0px"
	 width="100%" viewBox="0 0 500 500" enable-background="new 0 0 500 500" xml:space="preserve">
<path fill="#000000" opacity="1.000000" stroke="none" 
	d="
M335.000000,501.000000 
	C223.333359,501.000000 112.166718,501.000000 1.000060,501.000000 
	C1.000040,334.333405 1.000040,167.666794 1.000020,1.000149 
	C167.666565,1.000099 334.333130,1.000099 500.999756,1.000050 
	C500.999847,167.666519 500.999847,334.333038 500.999939,500.999786 
	C445.833344,501.000000 390.666656,501.000000 335.000000,501.000000 
M198.552841,124.957680 
	C197.100342,124.957680 195.647827,124.957680 194.195328,124.957680 
	C194.191666,125.208687 194.188004,125.459686 194.184341,125.710693 
	C195.826035,126.110283 197.467728,126.509880 199.826859,127.030975 
	C221.676529,134.745712 239.339600,147.652847 251.274857,168.130981 
	C240.375824,175.983337 229.773682,183.621780 219.132034,191.288712 
	C201.106705,160.204697 170.347824,157.031906 151.143219,164.965134 
	C128.306503,174.398758 114.865494,200.507462 119.197716,227.212128 
	C123.150566,251.578278 143.683319,270.299622 168.008255,271.716644 
	C189.278214,272.955658 211.876358,259.758026 216.823959,242.816620 
	C201.138504,242.816620 185.585312,242.816620 170.204941,242.816620 
	C170.204941,230.585571 170.204941,218.827301 170.204941,207.064362 
	C201.580048,207.064362 232.664520,207.064362 263.895416,207.064362 
	C266.235870,231.745102 259.509399,253.622894 244.974167,273.179138 
	C230.279678,292.949554 210.505768,304.787445 186.355835,309.550476 
	C186.406815,310.035065 186.457794,310.519684 186.508789,311.004272 
	C201.584915,311.004272 216.661026,311.004303 231.737152,311.004272 
	C254.899368,311.004242 278.061707,310.958771 301.223724,311.022369 
	C313.665344,311.056519 325.701385,308.986969 337.467987,304.951202 
	C377.179443,291.330811 403.268799,250.835846 398.786682,209.458145 
	C393.483612,160.501526 353.685516,128.327591 308.677643,126.278252 
	C280.926819,125.014679 253.091095,125.606583 225.293335,125.388351 
	C216.629684,125.320343 207.965439,125.327209 198.552841,124.957680 
z"/>
<path fill="#FDFDFD" opacity="1.000000" stroke="none" 
	d="
M199.301468,125.299805 
	C207.965439,125.327209 216.629684,125.320343 225.293335,125.388351 
	C253.091095,125.606583 280.926819,125.014679 308.677643,126.278252 
	C353.685516,128.327591 393.483612,160.501526 398.786682,209.458145 
	C403.268799,250.835846 377.179443,291.330811 337.467987,304.951202 
	C325.701385,308.986969 313.665344,311.056519 301.223724,311.022369 
	C278.061707,310.958771 254.899368,311.004242 231.737152,311.004272 
	C216.661026,311.004303 201.584915,311.004272 186.508789,311.004272 
	C186.457794,310.519684 186.406815,310.035065 186.355835,309.550476 
	C210.505768,304.787445 230.279678,292.949554 244.974167,273.179138 
	C259.509399,253.622894 266.235870,231.745102 263.895416,207.064362 
	C232.664520,207.064362 201.580048,207.064362 170.204941,207.064362 
	C170.204941,218.827301 170.204941,230.585571 170.204941,242.816620 
	C185.585312,242.816620 201.138504,242.816620 216.823959,242.816620 
	C211.876358,259.758026 189.278214,272.955658 168.008255,271.716644 
	C143.683319,270.299622 123.150566,251.578278 119.197716,227.212128 
	C114.865494,200.507462 128.306503,174.398758 151.143219,164.965134 
	C170.347824,157.031906 201.106705,160.204697 219.132034,191.288712 
	C229.773682,183.621780 240.375824,175.983337 251.274857,168.130981 
	C239.339600,147.652847 221.676529,134.745712 199.427856,126.696899 
	C199.119720,126.008484 199.210602,125.654144 199.301468,125.299805 
M281.501953,160.792908 
	C276.387939,160.792908 271.273926,160.792908 266.105347,160.792908 
	C266.105347,199.471725 266.105347,237.667953 266.105347,275.162750 
	C281.869690,275.162750 297.487000,276.622437 312.725311,274.840790 
	C339.532928,271.706451 357.948975,249.059311 359.394623,220.207916 
	C360.739929,193.359436 343.802063,168.855728 318.211243,163.216095 
	C306.689392,160.676956 294.427246,161.497025 281.501953,160.792908 
z"/>
<path fill="#5A5A5A" opacity="1.000000" stroke="none" 
	d="
M198.927155,125.128738 
	C199.210602,125.654144 199.119720,126.008484 199.069122,126.636154 
	C197.467728,126.509880 195.826035,126.110283 194.184341,125.710693 
	C194.188004,125.459686 194.191666,125.208687 194.195328,124.957680 
	C195.647827,124.957680 197.100342,124.957680 198.927155,125.128738 
z"/>
<path fill="#000000" opacity="1.000000" stroke="none" 
	d="
M282.001465,160.792908 
	C294.427246,161.497025 306.689392,160.676956 318.211243,163.216095 
	C343.802063,168.855728 360.739929,193.359436 359.394623,220.207916 
	C357.948975,249.059311 339.532928,271.706451 312.725311,274.840790 
	C297.487000,276.622437 281.869690,275.162750 266.105347,275.162750 
	C266.105347,237.667953 266.105347,199.471725 266.105347,160.792908 
	C271.273926,160.792908 276.387939,160.792908 282.001465,160.792908 
z"/>
</svg>