<svg version="1.1" id="Layer_1" xmlns="http://www.w3.org/2000/svg" xmlns:xlink="http://www.w3.org/1999/xlink" x="0px" y="0px"
	 width="100%" viewBox="0 0 500 500" enable-background="new 0 0 500 500" xml:space="preserve">
<path fill="#000000" opacity="1.000000" stroke="none" 
	d="
M295.000000,501.000000 
	C196.666687,501.000000 98.833382,501.000000 1.000052,501.000000 
	C1.000035,334.333405 1.000035,167.666794 1.000018,1.000142 
	C167.666565,1.000095 334.333130,1.000095 500.999756,1.000047 
	C500.999847,167.666519 500.999847,334.333038 500.999939,500.999786 
	C432.500000,501.000000 364.000000,501.000000 295.000000,501.000000 
M356.050598,239.304886 
	C355.832153,239.038208 355.613708,238.771530 355.537537,237.742310 
	C357.272583,228.943405 359.150024,220.244141 363.877045,212.365021 
	C365.987488,208.847321 367.332611,204.816620 368.631012,200.888474 
	C369.272766,198.946930 369.020569,196.709900 369.172852,194.606583 
	C368.449554,194.369019 367.726227,194.131470 367.002899,193.893906 
	C365.365173,196.759918 363.125122,199.445206 362.200897,202.525314 
	C359.245026,212.376266 357.562256,222.679916 353.845581,232.207092 
	C351.355469,238.590073 346.662811,244.304077 342.148682,249.633850 
	C339.554932,252.696228 336.280334,251.088470 336.443481,246.876068 
	C336.571869,243.561951 338.191467,240.302963 339.189880,237.032059 
	C339.246429,236.846909 339.677246,236.776001 340.034821,236.603134 
	C340.555969,237.438904 341.083344,238.284622 341.610718,239.130341 
	C342.104004,239.013016 342.597290,238.895691 343.090607,238.778351 
	C342.747498,236.974747 342.404388,235.171143 342.061279,233.367523 
	C340.404449,234.036911 338.219360,234.257492 337.194458,235.463791 
	C334.600494,238.516861 332.175659,241.450836 327.580292,241.606369 
	C327.355042,239.320145 327.533600,237.212799 326.841309,235.446884 
	C326.357880,234.213867 324.611145,232.544556 323.551270,232.627975 
	C318.572479,233.019806 314.722656,241.430756 317.379517,245.691635 
	C318.955109,248.218338 321.136566,248.775909 323.788208,247.298050 
	C326.934662,245.544479 330.094269,243.814575 333.960632,241.681305 
	C333.960632,244.155579 333.606476,245.584000 334.036163,246.714493 
	C334.868378,248.904083 335.673248,251.963776 337.363586,252.727051 
	C339.072815,253.498886 342.108063,252.391205 344.070679,251.256378 
	C346.154266,250.051605 347.659882,247.847183 350.008606,246.815308 
	C350.225281,247.043365 350.441956,247.271439 350.616821,248.292038 
	C349.683411,252.962967 348.750000,257.633911 347.816589,262.304840 
	C348.427368,262.470551 349.038147,262.636261 349.648895,262.802002 
	C351.277893,258.510345 352.906860,254.218689 354.580017,249.810593 
	C361.243073,255.102356 375.776428,246.159973 377.780823,235.283295 
	C371.362640,240.951950 367.583221,249.382507 356.776855,250.073029 
	C358.981506,247.601456 360.771698,246.376511 361.393707,244.714417 
	C362.332550,242.205566 362.456238,239.391632 362.926392,236.707367 
	C360.828522,237.858109 358.730621,239.008865 356.050598,239.304886 
M288.013184,200.864777 
	C288.191193,201.071136 288.369171,201.277496 288.512390,202.277298 
	C284.389526,222.907654 280.266632,243.538010 276.190491,263.934387 
	C274.902557,263.525818 274.012634,263.243500 273.671783,263.135376 
	C274.114960,269.708374 274.536591,275.962219 274.971741,282.416687 
	C282.554962,279.751495 274.037903,273.533234 278.858978,271.117004 
	C283.897766,268.851654 289.082825,266.553741 293.286865,263.071442 
	C302.280457,255.621872 308.525208,245.936249 312.980194,235.207199 
	C317.078064,225.338165 320.436493,215.190704 319.145142,204.256317 
	C318.077423,195.215546 311.276215,190.075714 302.313507,191.356857 
	C299.379791,191.776245 296.521027,192.719879 293.522705,193.449371 
	C293.090607,192.649155 292.549561,191.647110 292.477264,191.513245 
	C289.290710,194.543915 286.276031,197.483231 283.183533,200.338272 
	C275.091034,207.809433 270.120392,216.657349 270.986237,228.036957 
	C271.103943,229.584213 271.777802,231.089142 272.342316,233.156250 
	C273.545258,226.356476 273.462219,219.955811 275.928864,214.767212 
	C278.523041,209.310410 283.556671,205.013290 288.013184,200.864777 
M213.803436,234.277618 
	C213.974045,233.485336 214.566376,232.317505 214.248322,231.960312 
	C211.761520,229.167480 208.213638,229.725815 205.618378,233.801315 
	C202.420349,238.823380 199.887711,244.266022 196.759033,249.336563 
	C195.042969,252.117752 192.692123,254.507278 190.627518,257.073395 
	C190.101334,256.804688 189.575150,256.535950 189.048981,256.267242 
	C190.822250,248.534348 192.595520,240.801468 194.637619,231.896210 
	C191.387482,233.421371 189.354446,234.375381 186.668137,234.838257 
	C186.438461,234.691757 186.208771,234.545242 186.075409,233.668243 
	C187.025314,231.578918 188.213211,229.557159 188.832932,227.374115 
	C189.186050,226.130249 188.611603,224.623077 188.454849,223.234467 
	C187.128983,223.609131 185.062714,223.584915 184.608032,224.428925 
	C182.832169,227.725342 181.566269,231.296478 179.187515,235.454803 
	C178.176514,235.025589 177.105225,234.120850 176.163757,234.240189 
	C165.982468,235.530670 155.818085,236.957794 145.659790,238.421982 
	C144.453171,238.595901 143.310364,239.212631 142.137970,239.624100 
	C142.260681,240.125885 142.383392,240.627686 142.506088,241.129471 
	C145.724670,240.793640 148.940765,240.431519 152.162491,240.129333 
	C155.387787,239.826813 158.618683,239.584167 163.096909,239.211182 
	C160.370102,243.984665 158.581757,248.111908 155.911301,251.554932 
	C151.973175,256.632355 147.862732,261.765289 142.979416,265.867065 
	C138.137070,269.934448 134.107498,268.212311 132.845871,262.039307 
	C132.060883,258.198456 131.833542,254.046371 132.356827,250.169067 
	C134.812531,231.973541 142.467560,215.887299 153.198013,201.174850 
	C154.555328,199.313828 156.175980,197.545639 157.986679,196.134964 
	C161.868103,193.110962 164.872482,194.168015 165.006638,199.080353 
	C165.158966,204.658112 164.114822,210.268265 163.595932,215.864822 
	C163.493851,216.965912 163.414902,218.069153 163.325302,219.171417 
	C164.027283,219.277695 164.729263,219.383972 165.431259,219.490250 
	C166.283630,214.277527 167.433823,209.091019 167.895340,203.843918 
	C168.273239,199.547379 168.413513,194.408173 163.682632,192.485443 
	C158.608124,190.423065 155.298279,194.590561 152.548676,198.121445 
	C141.132004,212.782120 133.195541,229.150421 130.304276,247.571213 
	C129.452209,252.999817 129.850159,258.912292 131.048569,264.297424 
	C132.353516,270.161255 137.627655,272.098602 142.721695,268.888702 
	C146.578705,266.458344 149.936768,263.068542 153.052704,259.679016 
	C155.898041,256.583862 158.119843,252.915482 160.616425,249.499725 
	C160.391846,261.058258 156.400543,272.077698 158.155838,284.055542 
	C159.390671,283.650299 160.097809,282.792542 160.134277,281.907135 
	C160.230255,279.578125 159.645187,277.172455 160.020615,274.911774 
	C161.899033,263.600830 163.952362,252.317780 166.098557,241.054321 
	C166.294739,240.024734 167.411911,238.720642 168.395493,238.370682 
	C172.223099,237.008865 176.169296,235.980484 180.189819,235.642639 
	C182.808105,240.388336 186.774246,238.432297 190.748596,237.035583 
	C189.444687,243.034515 188.046738,248.298157 187.278809,253.652161 
	C187.020752,255.451462 188.365479,257.480652 188.977646,259.404785 
	C190.666550,258.598877 192.805069,258.194458 193.954712,256.907043 
	C196.707214,253.824677 198.994476,250.326874 201.505005,246.949051 
	C207.084595,249.982056 207.477356,242.586121 210.207993,241.891891 
	C212.396545,244.994415 214.849609,250.147873 216.058731,249.870911 
	C219.649963,249.048309 222.751480,246.087830 226.123871,243.911758 
	C228.223434,247.946838 231.249756,243.391739 235.855377,242.459885 
	C234.039352,246.570908 233.306107,250.011429 231.321198,252.420807 
	C221.910522,263.843933 214.771057,276.242554 214.288956,291.388245 
	C214.193817,294.377350 216.565063,297.444946 217.798859,300.476349 
	C220.092957,298.360352 223.513931,296.660461 224.476776,294.052917 
	C227.799271,285.054840 231.499634,275.904572 232.750732,266.505402 
	C234.404922,254.077820 239.612900,245.079407 250.619827,239.284668 
	C251.657593,238.738312 252.374176,237.581894 253.239883,236.708725 
	C252.867645,236.285645 252.495407,235.862564 252.123169,235.439468 
	C247.611694,238.646271 243.100235,241.853058 238.004578,244.251465 
	C237.785919,244.001022 237.567261,243.750595 237.330444,242.689377 
	C237.810669,239.345474 238.290894,236.001556 238.771118,232.657639 
	C238.260803,232.581360 237.750488,232.505081 237.240158,232.428787 
	C234.577255,235.924652 231.914337,239.420532 229.251434,242.916397 
	C228.775269,242.664200 228.299103,242.411987 227.822937,242.159790 
	C228.142853,238.649094 228.462753,235.138382 228.782654,231.627670 
	C228.362274,231.482391 227.941895,231.337112 227.521515,231.191833 
	C225.024506,237.546265 223.339798,244.475449 215.916077,248.875031 
	C214.832138,243.993408 213.926971,239.916992 213.112946,235.054398 
	C213.122299,234.790741 213.131638,234.527100 213.803436,234.277618 
z"/>
<path fill="#E4E4E4" opacity="1.000000" stroke="none" 
	d="
M238.588760,245.059860 
	C243.100235,241.853058 247.611694,238.646271 252.123169,235.439468 
	C252.495407,235.862564 252.867645,236.285645 253.239883,236.708725 
	C252.374176,237.581894 251.657593,238.738312 250.619827,239.284668 
	C239.612900,245.079407 234.404922,254.077820 232.750732,266.505402 
	C231.499634,275.904572 227.799271,285.054840 224.476776,294.052917 
	C223.513931,296.660461 220.092957,298.360352 217.798859,300.476349 
	C216.565063,297.444946 214.193817,294.377350 214.288956,291.388245 
	C214.771057,276.242554 221.910522,263.843933 231.321198,252.420807 
	C233.306107,250.011429 234.039352,246.570908 235.855377,242.459885 
	C231.249756,243.391739 228.223434,247.946838 226.123871,243.911758 
	C222.751480,246.087830 219.649963,249.048309 216.058731,249.870911 
	C214.849609,250.147873 212.396545,244.994415 210.207993,241.891891 
	C207.477356,242.586121 207.084595,249.982056 201.505005,246.949051 
	C198.994476,250.326874 196.707214,253.824677 193.954712,256.907043 
	C192.805069,258.194458 190.666550,258.598877 188.977646,259.404785 
	C188.365479,257.480652 187.020752,255.451462 187.278809,253.652161 
	C188.046738,248.298157 189.444687,243.034515 190.748596,237.035583 
	C186.774246,238.432297 182.808105,240.388336 180.108566,235.249847 
	C180.027313,234.857040 180.110764,234.765472 180.110764,234.765472 
	C181.566269,231.296478 182.832169,227.725342 184.608032,224.428925 
	C185.062714,223.584915 187.128983,223.609131 188.454849,223.234467 
	C188.611603,224.623077 189.186050,226.130249 188.832932,227.374115 
	C188.213211,229.557159 187.025314,231.578918 185.784912,234.188477 
	C185.520676,235.109604 185.546921,235.510513 185.573181,235.911407 
	C186.155930,235.717407 186.738663,235.523407 187.321411,235.329391 
	C189.354446,234.375381 191.387482,233.421371 194.637619,231.896210 
	C192.595520,240.801468 190.822250,248.534348 189.048981,256.267242 
	C189.575150,256.535950 190.101334,256.804688 190.627518,257.073395 
	C192.692123,254.507278 195.042969,252.117752 196.759033,249.336563 
	C199.887711,244.266022 202.420349,238.823380 205.618378,233.801315 
	C208.213638,229.725815 211.761520,229.167480 214.248322,231.960312 
	C214.566376,232.317505 213.974045,233.485336 213.260529,234.009811 
	C204.558578,231.759125 207.310333,239.844635 204.473373,242.829971 
	C206.150497,242.242737 207.346176,241.155457 208.529099,240.054504 
	C210.032089,238.655670 211.524719,237.245728 213.021820,235.840576 
	C213.926971,239.916992 214.832138,243.993408 215.916077,248.875031 
	C223.339798,244.475449 225.024506,237.546265 227.521515,231.191833 
	C227.941895,231.337112 228.362274,231.482391 228.782654,231.627670 
	C228.462753,235.138382 228.142853,238.649094 227.822937,242.159790 
	C228.299103,242.411987 228.775269,242.664200 229.251434,242.916397 
	C231.914337,239.420532 234.577255,235.924652 237.240158,232.428787 
	C237.750488,232.505081 238.260803,232.581360 238.771118,232.657639 
	C238.290894,236.001556 237.810669,239.345474 237.220535,243.380569 
	C237.141479,244.672501 237.172333,245.273254 237.203186,245.873993 
	C237.665054,245.602615 238.126907,245.331238 238.588760,245.059860 
M230.121399,268.571716 
	C230.846817,264.833496 231.572250,261.095306 232.503983,256.294037 
	C221.894760,265.280853 212.623199,290.696228 218.908783,298.386078 
	C225.671158,289.718597 227.293793,279.336243 230.121399,268.571716 
M234.179718,243.174667 
	C234.313309,242.546249 234.446899,241.917816 234.580505,241.289398 
	C234.174713,241.743896 233.768936,242.198395 234.179718,243.174667 
z"/>
<path fill="#E4E4E4" opacity="1.000000" stroke="none" 
	d="
M287.524323,200.209427 
	C283.556671,205.013290 278.523041,209.310410 275.928864,214.767212 
	C273.462219,219.955811 273.545258,226.356476 272.342316,233.156250 
	C271.777802,231.089142 271.103943,229.584213 270.986237,228.036957 
	C270.120392,216.657349 275.091034,207.809433 283.183533,200.338272 
	C286.276031,197.483231 289.290710,194.543915 292.477264,191.513245 
	C292.549561,191.647110 293.090607,192.649155 293.522705,193.449371 
	C296.521027,192.719879 299.379791,191.776245 302.313507,191.356857 
	C311.276215,190.075714 318.077423,195.215546 319.145142,204.256317 
	C320.436493,215.190704 317.078064,225.338165 312.980194,235.207199 
	C308.525208,245.936249 302.280457,255.621872 293.286865,263.071442 
	C289.082825,266.553741 283.897766,268.851654 278.858978,271.117004 
	C274.037903,273.533234 282.554962,279.751495 274.971741,282.416687 
	C274.536591,275.962219 274.114960,269.708374 273.671783,263.135376 
	C274.012634,263.243500 274.902557,263.525818 276.190491,263.934387 
	C280.266632,243.538010 284.389526,222.907654 288.671082,201.603668 
	C288.394623,200.689819 287.959473,200.449615 287.524323,200.209427 
M314.164062,224.525787 
	C315.113434,219.817368 316.600433,215.144104 316.911011,210.393921 
	C317.830536,196.328400 309.693024,190.544266 296.314056,195.195145 
	C293.103638,196.311188 291.668304,198.195312 291.067474,201.483994 
	C289.308197,211.114075 287.206146,220.680923 285.323395,230.289200 
	C282.885040,242.733017 280.528778,255.192932 278.053925,268.079376 
	C284.987274,267.367065 289.468628,263.662201 293.626038,259.626740 
	C303.493378,250.048889 309.957794,238.385788 314.164062,224.525787 
z"/>
<path fill="#E8E8E8" opacity="1.000000" stroke="none" 
	d="
M349.417877,246.079285 
	C347.659882,247.847183 346.154266,250.051605 344.070679,251.256378 
	C342.108063,252.391205 339.072815,253.498886 337.363586,252.727051 
	C335.673248,251.963776 334.868378,248.904083 334.036163,246.714493 
	C333.606476,245.584000 333.960632,244.155579 333.960632,241.681305 
	C330.094269,243.814575 326.934662,245.544479 323.788208,247.298050 
	C321.136566,248.775909 318.955109,248.218338 317.379517,245.691635 
	C314.722656,241.430756 318.572479,233.019806 323.551270,232.627975 
	C324.611145,232.544556 326.357880,234.213867 326.841309,235.446884 
	C327.533600,237.212799 327.355042,239.320145 327.580292,241.606369 
	C332.175659,241.450836 334.600494,238.516861 337.194458,235.463791 
	C338.219360,234.257492 340.404449,234.036911 342.061279,233.367523 
	C342.404388,235.171143 342.747498,236.974747 343.090607,238.778351 
	C342.597290,238.895691 342.104004,239.013016 341.610718,239.130341 
	C341.083344,238.284622 340.555969,237.438904 340.034821,236.603134 
	C339.677246,236.776001 339.246429,236.846909 339.189880,237.032059 
	C338.191467,240.302963 336.571869,243.561951 336.443481,246.876068 
	C336.280334,251.088470 339.554932,252.696228 342.148682,249.633850 
	C346.662811,244.304077 351.355469,238.590073 353.845581,232.207092 
	C357.562256,222.679916 359.245026,212.376266 362.200897,202.525314 
	C363.125122,199.445206 365.365173,196.759918 367.002899,193.893906 
	C367.726227,194.131470 368.449554,194.369019 369.172852,194.606583 
	C369.020569,196.709900 369.272766,198.946930 368.631012,200.888474 
	C367.332611,204.816620 365.987488,208.847321 363.877045,212.365021 
	C359.150024,220.244141 357.272583,228.943405 355.322083,238.415405 
	C354.884888,239.999161 354.663208,240.909805 354.441498,241.820450 
	C354.640320,241.929199 354.839111,242.037964 355.037903,242.146713 
	C355.569519,241.484344 356.101135,240.821976 356.632751,240.159607 
	C358.730621,239.008865 360.828522,237.858109 362.926392,236.707367 
	C362.456238,239.391632 362.332550,242.205566 361.393707,244.714417 
	C360.771698,246.376511 358.981506,247.601456 356.776855,250.073029 
	C367.583221,249.382507 371.362640,240.951950 377.780823,235.283295 
	C375.776428,246.159973 361.243073,255.102356 354.580017,249.810593 
	C352.906860,254.218689 351.277893,258.510345 349.648895,262.802002 
	C349.038147,262.636261 348.427368,262.470551 347.816589,262.304840 
	C348.750000,257.633911 349.683411,252.962967 350.763885,247.622681 
	C350.868561,246.380859 350.826172,245.808395 350.783752,245.235947 
	C350.328461,245.517059 349.873169,245.798172 349.417877,246.079285 
M323.368347,242.289948 
	C322.269257,241.050690 321.170135,239.811432 320.071045,238.572174 
	C319.614380,238.738510 319.157745,238.904846 318.701111,239.071167 
	C319.258606,241.199280 319.816101,243.327377 320.373566,245.455490 
	C321.524658,244.585434 322.675751,243.715393 323.368347,242.289948 
z"/>
<path fill="#E2E2E2" opacity="1.000000" stroke="none" 
	d="
M179.649139,235.110138 
	C180.110764,234.765472 180.027313,234.857040 180.049347,234.842560 
	C176.169296,235.980484 172.223099,237.008865 168.395493,238.370682 
	C167.411911,238.720642 166.294739,240.024734 166.098557,241.054321 
	C163.952362,252.317780 161.899033,263.600830 160.020615,274.911774 
	C159.645187,277.172455 160.230255,279.578125 160.134277,281.907135 
	C160.097809,282.792542 159.390671,283.650299 158.155838,284.055542 
	C156.400543,272.077698 160.391846,261.058258 160.616425,249.499725 
	C158.119843,252.915482 155.898041,256.583862 153.052704,259.679016 
	C149.936768,263.068542 146.578705,266.458344 142.721695,268.888702 
	C137.627655,272.098602 132.353516,270.161255 131.048569,264.297424 
	C129.850159,258.912292 129.452209,252.999817 130.304276,247.571213 
	C133.195541,229.150421 141.132004,212.782120 152.548676,198.121445 
	C155.298279,194.590561 158.608124,190.423065 163.682632,192.485443 
	C168.413513,194.408173 168.273239,199.547379 167.895340,203.843918 
	C167.433823,209.091019 166.283630,214.277527 165.431259,219.490250 
	C164.729263,219.383972 164.027283,219.277695 163.325302,219.171417 
	C163.414902,218.069153 163.493851,216.965912 163.595932,215.864822 
	C164.114822,210.268265 165.158966,204.658112 165.006638,199.080353 
	C164.872482,194.168015 161.868103,193.110962 157.986679,196.134964 
	C156.175980,197.545639 154.555328,199.313828 153.198013,201.174850 
	C142.467560,215.887299 134.812531,231.973541 132.356827,250.169067 
	C131.833542,254.046371 132.060883,258.198456 132.845871,262.039307 
	C134.107498,268.212311 138.137070,269.934448 142.979416,265.867065 
	C147.862732,261.765289 151.973175,256.632355 155.911301,251.554932 
	C158.581757,248.111908 160.370102,243.984665 163.096909,239.211182 
	C158.618683,239.584167 155.387787,239.826813 152.162491,240.129333 
	C148.940765,240.431519 145.724670,240.793640 142.506088,241.129471 
	C142.383392,240.627686 142.260681,240.125885 142.137970,239.624100 
	C143.310364,239.212631 144.453171,238.595901 145.659790,238.421982 
	C155.818085,236.957794 165.982468,235.530670 176.163757,234.240189 
	C177.105225,234.120850 178.176514,235.025589 179.649139,235.110138 
M161.999252,239.564682 
	C162.201920,239.638702 162.404587,239.712738 162.607254,239.786774 
	C162.544006,239.576660 162.480759,239.366531 161.999252,239.564682 
z"/>
<path fill="#141414" opacity="1.000000" stroke="none" 
	d="
M213.067383,235.447479 
	C211.524719,237.245728 210.032089,238.655670 208.529099,240.054504 
	C207.346176,241.155457 206.150497,242.242737 204.473373,242.829971 
	C207.310333,239.844635 204.558578,231.759125 212.929306,234.002731 
	C213.131638,234.527100 213.122299,234.790741 213.067383,235.447479 
z"/>
<path fill="#090909" opacity="1.000000" stroke="none" 
	d="
M230.064423,268.984558 
	C227.293793,279.336243 225.671158,289.718597 218.908783,298.386078 
	C212.623199,290.696228 221.894760,265.280853 232.503983,256.294037 
	C231.572250,261.095306 230.846817,264.833496 230.064423,268.984558 
z"/>
<path fill="#000000" opacity="1.000000" stroke="none" 
	d="
M186.994781,235.083832 
	C186.738663,235.523407 186.155930,235.717407 185.573181,235.911407 
	C185.546921,235.510513 185.520676,235.109604 185.736740,234.553726 
	C186.208771,234.545242 186.438461,234.691757 186.994781,235.083832 
z"/>
<path fill="#000000" opacity="1.000000" stroke="none" 
	d="
M233.771423,242.913788 
	C233.768936,242.198395 234.174713,241.743896 234.580505,241.289398 
	C234.446899,241.917816 234.313309,242.546249 233.771423,242.913788 
z"/>
<path fill="#000000" opacity="1.000000" stroke="none" 
	d="
M238.296661,244.655670 
	C238.126907,245.331238 237.665054,245.602615 237.203186,245.873993 
	C237.172333,245.273254 237.141479,244.672501 237.229614,243.785950 
	C237.567261,243.750595 237.785919,244.001022 238.296661,244.655670 
z"/>
<path fill="#030303" opacity="1.000000" stroke="none" 
	d="
M314.087585,224.923294 
	C309.957794,238.385788 303.493378,250.048889 293.626038,259.626740 
	C289.468628,263.662201 284.987274,267.367065 278.053925,268.079376 
	C280.528778,255.192932 282.885040,242.733017 285.323395,230.289200 
	C287.206146,220.680923 289.308197,211.114075 291.067474,201.483994 
	C291.668304,198.195312 293.103638,196.311188 296.314056,195.195145 
	C309.693024,190.544266 317.830536,196.328400 316.911011,210.393921 
	C316.600433,215.144104 315.113434,219.817368 314.087585,224.923294 
z"/>
<path fill="#000000" opacity="1.000000" stroke="none" 
	d="
M287.768738,200.537109 
	C287.959473,200.449615 288.394623,200.689819 288.688477,201.206940 
	C288.369171,201.277496 288.191193,201.071136 287.768738,200.537109 
z"/>
<path fill="#212121" opacity="1.000000" stroke="none" 
	d="
M323.597595,242.567642 
	C322.675751,243.715393 321.524658,244.585434 320.373566,245.455490 
	C319.816101,243.327377 319.258606,241.199280 318.701111,239.071167 
	C319.157745,238.904846 319.614380,238.738510 320.071045,238.572174 
	C321.170135,239.811432 322.269257,241.050690 323.597595,242.567642 
z"/>
<path fill="#000000" opacity="1.000000" stroke="none" 
	d="
M356.341675,239.732239 
	C356.101135,240.821976 355.569519,241.484344 355.037903,242.146713 
	C354.839111,242.037964 354.640320,241.929199 354.441498,241.820450 
	C354.663208,240.909805 354.884888,239.999161 355.250916,238.796692 
	C355.613708,238.771530 355.832153,239.038208 356.341675,239.732239 
z"/>
<path fill="#000000" opacity="1.000000" stroke="none" 
	d="
M349.713257,246.447296 
	C349.873169,245.798172 350.328461,245.517059 350.783752,245.235947 
	C350.826172,245.808395 350.868561,246.380859 350.784790,247.226410 
	C350.441956,247.271439 350.225281,247.043365 349.713257,246.447296 
z"/>
<path fill="#000000" opacity="1.000000" stroke="none" 
	d="
M162.208374,239.360550 
	C162.480759,239.366531 162.544006,239.576660 162.607254,239.786774 
	C162.404587,239.712738 162.201920,239.638702 162.208374,239.360550 
z"/>
</svg>