<?xml version="1.0" encoding="UTF-8"?>
<!DOCTYPE svg PUBLIC "-//W3C//DTD SVG 1.1//EN" "http://www.w3.org/Graphics/SVG/1.1/DTD/svg11.dtd">
<svg xmlns="http://www.w3.org/2000/svg" version="1.1" width="500px" height="500px" style="shape-rendering:geometricPrecision; text-rendering:geometricPrecision; image-rendering:optimizeQuality; fill-rule:evenodd; clip-rule:evenodd" xmlns:xlink="http://www.w3.org/1999/xlink">
<g><path style="opacity:1" fill="#000000" d="M -0.5,-0.5 C 166.167,-0.5 332.833,-0.5 499.5,-0.5C 499.5,166.167 499.5,332.833 499.5,499.5C 332.833,499.5 166.167,499.5 -0.5,499.5C -0.5,332.833 -0.5,166.167 -0.5,-0.5 Z"/></g>
<g><path style="opacity:1" fill="#dadada" d="M 288.5,189.5 C 289.5,189.5 290.5,189.5 291.5,189.5C 291.351,190.552 291.517,191.552 292,192.5C 301.136,187.438 309.136,188.771 316,196.5C 318.778,223.46 309.945,245.96 289.5,264C 285.532,266.711 281.198,268.544 276.5,269.5C 276.579,270.93 276.246,272.264 275.5,273.5C 277.892,275.56 277.892,277.727 275.5,280C 274.552,280.483 273.552,280.649 272.5,280.5C 272.421,276.798 272.754,273.132 273.5,269.5C 273.303,267.318 272.636,265.318 271.5,263.5C 272.699,262.425 273.866,261.425 275,260.5C 279.144,239.453 283.144,218.453 287,197.5C 276.202,205.763 270.702,216.763 270.5,230.5C 268.055,214.722 273.722,202.722 287.5,194.5C 288.452,192.955 288.785,191.288 288.5,189.5 Z"/></g>
<g><path style="opacity:1" fill="#030303" d="M 296.5,192.5 C 308.292,189.771 314.626,194.271 315.5,206C 313.903,227.191 305.569,245.191 290.5,260C 286.837,263.082 282.67,265.249 278,266.5C 277.5,266.167 277,265.833 276.5,265.5C 281.058,241.877 286.058,218.377 291.5,195C 293.315,194.243 294.981,193.41 296.5,192.5 Z"/></g>
<g><path style="opacity:1" fill="#dfdfdf" d="M 364.5,193.5 C 365.5,193.5 366.5,193.5 367.5,193.5C 366.336,202.842 363.169,211.508 358,219.5C 356.42,226.735 354.586,233.902 352.5,241C 352.548,242.033 352.881,242.366 353.5,242C 354.676,239.314 356.343,236.981 358.5,235C 362.088,234.389 363.254,235.889 362,239.5C 360.752,242.579 358.919,245.246 356.5,247.5C 357.167,247.833 357.833,248.167 358.5,248.5C 365.175,245.664 370.509,241.164 374.5,235C 375.332,234.312 375.998,234.479 376.5,235.5C 372.258,242.242 366.592,247.409 359.5,251C 358.5,251.667 357.5,251.667 356.5,251C 355.646,249.978 354.646,249.145 353.5,248.5C 351.5,252.833 349.5,257.167 347.5,261.5C 347.167,260.5 346.833,259.5 346.5,258.5C 347.543,253.463 348.376,248.463 349,243.5C 346.097,247.43 342.43,250.097 338,251.5C 336.564,251.441 335.231,251.108 334,250.5C 332.847,247.289 332.18,243.956 332,240.5C 328.261,241.423 325.094,243.256 322.5,246C 316.714,246.881 314.214,244.381 315,238.5C 316.44,234.858 318.94,232.192 322.5,230.5C 323.478,230.977 324.311,231.643 325,232.5C 325.497,235.146 325.664,237.813 325.5,240.5C 327.308,240.509 328.975,240.009 330.5,239C 333.227,236.38 336.06,233.88 339,231.5C 340.885,231.862 341.719,233.029 341.5,235C 341.167,235.833 340.833,236.667 340.5,237.5C 339.719,236.271 339.219,234.938 339,233.5C 335.319,237.52 333.986,242.187 335,247.5C 335.739,248.574 336.739,249.241 338,249.5C 343.685,246.161 348.019,241.494 351,235.5C 353.54,225.136 356.206,214.803 359,204.5C 360.319,200.528 362.153,196.861 364.5,193.5 Z"/></g>
<g><path style="opacity:1" fill="#dddddd" d="M 184.5,221.5 C 185.5,221.5 186.5,221.5 187.5,221.5C 187.472,226.083 186.139,230.25 183.5,234C 186.394,233.246 189.394,232.413 192.5,231.5C 191.339,236.813 190.172,242.146 189,247.5C 188.333,250.167 188.333,252.833 189,255.5C 195.165,249.183 199.831,241.849 203,233.5C 204.858,230.588 207.358,229.088 210.5,229C 211.91,229.368 212.91,230.201 213.5,231.5C 212.078,232.547 210.578,232.547 209,231.5C 204.876,234.414 202.876,238.414 203,243.5C 205.167,240.667 207.333,237.833 209.5,235C 210.448,234.517 211.448,234.351 212.5,234.5C 212.337,236.857 212.503,239.19 213,241.5C 213.098,243.619 213.931,245.286 215.5,246.5C 217.761,245.318 219.595,243.651 221,241.5C 223.129,237.579 224.963,233.579 226.5,229.5C 226.419,233.423 226.752,237.423 227.5,241.5C 230.806,238.233 233.639,234.567 236,230.5C 236.112,235.238 236.278,239.904 236.5,244.5C 240.814,240.676 245.481,237.343 250.5,234.5C 250.833,234.833 251.167,235.167 251.5,235.5C 245.878,239.95 240.378,244.616 235,249.5C 232.655,265.883 227.989,281.55 221,296.5C 217.193,300.79 214.527,300.123 213,294.5C 212.183,284.588 214.183,275.255 219,266.5C 222.843,260.147 227.177,254.147 232,248.5C 232.781,245.166 233.114,241.833 233,238.5C 231.131,243.543 228.131,244.543 224,241.5C 218.105,251.112 213.105,250.779 209,240.5C 206.984,242.684 204.817,244.684 202.5,246.5C 201.522,246.023 200.689,245.357 200,244.5C 197.429,250.234 193.596,254.901 188.5,258.5C 186.082,257.271 185.082,255.271 185.5,252.5C 186.206,247.008 187.54,241.674 189.5,236.5C 189.167,236.167 188.833,235.833 188.5,235.5C 183.127,238.997 179.794,237.664 178.5,231.5C 179.32,227.371 181.32,224.038 184.5,221.5 Z"/></g>
<g><path style="opacity:1" fill="#262626" d="M 183.5,224.5 C 184.239,224.369 184.906,224.536 185.5,225C 183.858,227.786 182.358,230.619 181,233.5C 180.333,232.167 180.333,230.833 181,229.5C 182.094,227.922 182.928,226.255 183.5,224.5 Z"/></g>
<g><path style="opacity:1" fill="#dbdbdb" d="M 157.5,190.5 C 161.683,189.846 164.516,191.512 166,195.5C 166.861,202.968 166.195,210.301 164,217.5C 162.513,218.741 161.68,218.241 161.5,216C 163.303,208.922 163.803,201.755 163,194.5C 159.571,192.987 156.571,193.653 154,196.5C 140.938,212.96 133.104,231.626 130.5,252.5C 130.216,257.539 131.549,262.039 134.5,266C 137.419,266.552 140.086,265.885 142.5,264C 150.544,256.575 156.878,247.908 161.5,238C 155.305,237.836 149.138,238.336 143,239.5C 140.759,239.32 140.259,238.487 141.5,237C 152.785,236.296 163.952,234.796 175,232.5C 176.826,233.01 176.993,233.844 175.5,235C 171.987,235.927 168.487,236.761 165,237.5C 162.677,247.77 160.677,258.103 159,268.5C 158.248,271.894 158.415,275.227 159.5,278.5C 158.974,280.23 157.974,281.564 156.5,282.5C 155.34,278.541 155.173,274.541 156,270.5C 157.479,262.12 158.812,253.787 160,245.5C 155.467,254.75 148.967,262.25 140.5,268C 134.891,269.778 131.057,267.945 129,262.5C 127.019,248.093 129.352,234.427 136,221.5C 140.737,209.318 147.904,198.985 157.5,190.5 Z"/></g>
<g><path style="opacity:1" fill="#1a1a1a" d="M 321.5,233.5 C 322.649,233.791 323.316,234.624 323.5,236C 323.333,236.833 323.167,237.667 323,238.5C 321.731,237.095 321.231,235.429 321.5,233.5 Z"/></g>
<g><path style="opacity:1" fill="#191919" d="M 318.5,236.5 C 319.126,238.626 320.459,240.293 322.5,241.5C 319.874,245.684 318.208,245.351 317.5,240.5C 317.623,239.075 317.957,237.742 318.5,236.5 Z"/></g>
<g><path style="opacity:1" fill="#3e3e3e" d="M 358.5,237.5 C 359.239,237.369 359.906,237.536 360.5,238C 358.789,240.589 356.955,243.089 355,245.5C 355.84,242.807 357.007,240.14 358.5,237.5 Z"/></g>
<g><path style="opacity:1" fill="#0a0a0a" d="M 230.5,253.5 C 229.314,265.593 226.481,277.593 222,289.5C 217.945,299.045 215.778,298.712 215.5,288.5C 216.941,275.287 221.941,263.62 230.5,253.5 Z"/></g>
</svg>
