<svg version="1.1" id="Layer_1" xmlns="http://www.w3.org/2000/svg" xmlns:xlink="http://www.w3.org/1999/xlink" x="0px" y="0px"
	 width="100%" viewBox="0 0 500 500" enable-background="new 0 0 500 500" xml:space="preserve">
<path fill="#000000" opacity="1.000000" stroke="none" 
	d="
M335.000000,501.000000 
	C223.333359,501.000000 112.166718,501.000000 1.000060,501.000000 
	C1.000040,334.333405 1.000040,167.666794 1.000020,1.000149 
	C167.666565,1.000099 334.333130,1.000099 500.999756,1.000050 
	C500.999847,167.666519 500.999847,334.333038 500.999939,500.999786 
	C445.833344,501.000000 390.666656,501.000000 335.000000,501.000000 
M205.864075,367.758881 
	C205.991531,367.919373 206.119003,368.079895 206.202637,369.015747 
	C205.118774,374.687744 203.926575,380.343140 203.052872,386.047333 
	C202.899094,387.051331 203.827057,388.710175 204.730774,389.214020 
	C205.326904,389.546356 207.030273,388.598907 207.795486,387.800507 
	C211.268585,384.176727 214.584534,380.402344 217.903671,376.741058 
	C220.418472,379.611511 221.906891,376.824585 224.135895,374.291077 
	C224.825012,373.087219 225.514114,371.883362 225.926941,371.162170 
	C228.429871,374.987366 230.878052,380.086853 231.752655,379.829956 
	C235.493469,378.730988 238.770142,376.052063 242.329849,373.879913 
	C245.974579,378.317322 247.908615,372.766998 251.374283,371.272217 
	C250.197723,375.635681 248.986816,380.098083 246.365295,383.460846 
	C237.806458,394.439575 231.202728,406.155884 230.200424,420.323364 
	C229.938736,424.022369 229.348846,429.092804 233.810089,430.188812 
	C238.074738,431.236481 239.811600,426.495789 240.928772,423.217804 
	C243.921112,414.437714 247.586319,405.630615 248.754471,396.547516 
	C250.354202,384.108734 255.577072,375.088287 266.605469,369.293762 
	C267.650482,368.744690 268.375671,367.586914 269.249329,366.711700 
	C268.876678,366.286652 268.503998,365.861603 268.131348,365.436584 
	C263.617310,368.644348 259.103271,371.852112 254.018616,374.241791 
	C253.795074,373.995667 253.571533,373.749573 253.331177,372.691132 
	C253.810394,369.376587 254.289597,366.062073 254.768799,362.747528 
	C254.287079,362.589294 253.805374,362.431030 253.323654,362.272797 
	C250.684326,365.818756 248.044998,369.364746 245.405670,372.910736 
	C244.901031,372.726685 244.396378,372.542633 243.891739,372.358582 
	C244.166748,368.772400 244.441772,365.186249 244.716782,361.600067 
	C244.317978,361.476318 243.919174,361.352570 243.520370,361.228851 
	C241.015396,367.573334 239.322235,374.489258 231.911438,378.891510 
	C230.830231,374.006744 229.927399,369.927917 229.106186,365.051819 
	C229.113235,364.784760 229.120285,364.517670 229.787949,364.275513 
	C229.967819,363.487427 230.572479,362.324493 230.260239,361.970612 
	C227.794815,359.176422 224.251648,359.681152 221.643143,363.774841 
	C217.226929,370.705536 213.283890,377.936615 209.056290,384.990112 
	C208.598511,385.753876 207.575989,386.179138 206.815430,386.761414 
	C206.307007,385.922058 205.255722,384.989807 205.380814,384.258850 
	C206.050400,380.346100 206.962524,376.471375 207.891006,372.607574 
	C208.643158,369.477478 209.536972,366.381439 210.754105,361.824585 
	C207.066315,363.558624 204.773712,364.636627 202.011749,365.084473 
	C201.828415,364.897400 201.645096,364.710358 201.753265,363.876160 
	C202.827377,361.281311 204.153809,358.756104 204.895081,356.069458 
	C205.478897,353.953430 204.604980,352.327850 201.932404,353.204407 
	C198.189377,354.432098 194.628632,361.644745 195.892807,365.287903 
	C197.106888,368.786682 200.029053,369.379761 205.864075,367.758881 
M372.065033,369.294006 
	C371.841492,369.031830 371.617950,368.769623 371.542236,367.735565 
	C373.271973,358.932373 375.159424,350.233643 379.882538,342.350891 
	C381.991669,338.830811 383.339172,334.800476 384.636841,330.871094 
	C385.276611,328.933838 385.017517,326.699677 385.165131,324.599884 
	C384.430481,324.366486 383.695801,324.133057 382.961151,323.899658 
	C381.285706,326.929413 379.013092,329.781097 378.046448,333.022247 
	C375.106750,342.879181 373.509094,353.218384 369.745758,362.718933 
	C367.230469,369.068756 362.215149,374.560699 357.719421,379.935364 
	C355.610382,382.456726 352.622284,381.092316 352.601440,377.813904 
	C352.577454,374.036163 353.717560,370.251038 354.352142,366.469116 
	C354.835632,366.502838 355.319122,366.536591 355.802612,366.570312 
	C356.483307,367.423706 357.164001,368.277069 357.844696,369.130432 
	C358.314545,368.979950 358.784393,368.829468 359.254211,368.678986 
	C358.774078,366.857758 358.293915,365.036499 357.813751,363.215271 
	C356.177307,364.011536 354.369293,364.579346 352.940643,365.652313 
	C350.094482,367.789917 347.456848,370.205139 343.776154,373.313934 
	C343.390564,369.466431 343.612244,367.337616 342.864838,365.633972 
	C342.296539,364.338593 340.328949,362.584229 339.273407,362.761139 
	C334.691132,363.529114 331.281067,370.305786 332.901886,374.627869 
	C334.169830,378.008881 337.100220,378.932953 340.079132,377.157104 
	C343.096497,375.358307 346.279144,373.836761 349.927795,371.909363 
	C349.927795,373.909393 349.675903,374.842010 349.972870,375.541687 
	C351.062134,378.107819 351.804626,382.034973 353.680054,382.724915 
	C355.706909,383.470520 359.060150,381.507324 361.453003,380.083771 
	C363.441040,378.901123 364.875275,376.787506 367.193146,374.439819 
	C365.978638,381.026947 364.936646,386.678497 363.894653,392.330017 
	C364.478943,392.484680 365.063202,392.639343 365.647491,392.794037 
	C367.278625,388.480286 368.909760,384.166534 370.050415,381.149841 
	C373.508331,381.421295 377.091187,382.824188 378.614075,381.620575 
	C384.106232,377.279999 388.909943,372.066956 393.929108,367.138062 
	C394.038483,367.030640 393.615143,366.380707 393.260010,365.574524 
	C387.399323,371.232300 383.499969,379.263062 372.782715,380.135620 
	C374.975861,377.645966 376.746521,376.411255 377.370178,374.746765 
	C378.313812,372.228394 378.458679,369.410736 378.942932,366.720245 
	C376.840118,367.865723 374.737305,369.011169 372.065033,369.294006 
M304.005859,330.870850 
	C304.186432,331.074707 304.367035,331.278595 304.511536,332.275848 
	C300.388855,352.894592 296.266205,373.513306 292.153046,394.084381 
	C290.906860,393.545776 290.132507,393.211121 289.550018,392.959351 
	C290.050629,399.567963 290.526886,405.855133 291.022522,412.398346 
	C298.454468,409.801117 290.118408,403.600189 294.748627,401.213318 
	C299.923218,398.861633 305.308716,396.519348 309.526550,392.838928 
	C321.508942,382.383270 329.082733,368.937592 332.880585,353.605652 
	C334.453339,347.256348 335.290619,340.468079 334.938873,333.961761 
	C334.465210,325.198944 327.269409,320.151398 318.520386,321.332214 
	C315.441589,321.747772 312.440125,322.736389 309.377777,323.469482 
	C308.951782,322.594910 308.459229,321.583649 308.379791,321.420563 
	C305.433197,324.318024 302.766388,327.170563 299.860626,329.754364 
	C291.345245,337.326233 286.110168,346.348755 286.991943,358.127411 
	C287.106018,359.651031 287.789978,361.131958 288.209961,362.632660 
	C288.706665,362.635101 289.203369,362.637512 289.700073,362.639954 
	C287.616852,348.802216 292.551361,338.138794 304.005859,330.870850 
M198.553726,124.958565 
	C197.101837,124.958565 195.649948,124.958565 194.198044,124.958565 
	C194.194382,125.209152 194.190704,125.459740 194.187042,125.710327 
	C195.827988,126.109955 197.468933,126.509583 199.827332,127.030571 
	C221.675674,134.745377 239.339020,147.651276 251.275772,168.130936 
	C240.380157,175.981049 229.778732,183.619202 219.138245,191.285492 
	C200.999176,160.070007 170.192627,157.093170 151.150757,164.961609 
	C128.316269,174.397217 114.872826,200.490204 119.196640,227.202469 
	C123.139786,251.563049 143.674103,270.293091 167.997543,271.715424 
	C189.254547,272.958435 211.799347,259.802277 216.830002,242.828003 
	C201.144684,242.828003 185.593414,242.828003 170.198975,242.828003 
	C170.198975,230.596207 170.198975,218.838608 170.198975,207.056717 
	C201.567917,207.056717 232.651703,207.056717 263.895996,207.056717 
	C266.232941,231.726440 259.523254,253.603821 244.987793,273.161682 
	C230.287247,292.941620 210.513214,304.789459 186.353683,309.548920 
	C186.402145,310.033875 186.450592,310.518860 186.499054,311.003815 
	C201.581833,311.003815 216.664627,311.003845 231.747406,311.003815 
	C254.908966,311.003784 278.070648,310.958588 301.232025,311.021820 
	C313.673370,311.055786 325.709198,308.984985 337.475006,304.948456 
	C377.183411,291.325439 403.273010,250.818832 398.786438,209.453232 
	C393.476105,160.493103 353.676392,128.326721 308.675446,126.278625 
	C280.925354,125.015663 253.090424,125.607292 225.293427,125.389122 
	C216.630020,125.321121 207.966034,125.327827 198.553726,124.958565 
M175.619827,389.899597 
	C174.411438,397.786652 172.080627,405.615234 173.093582,413.617981 
	C173.946609,413.635040 174.799637,413.652130 175.652664,413.669189 
	C175.652664,410.924683 175.282013,408.119873 175.717285,405.446228 
	C177.533432,394.290253 179.663803,383.185638 181.510941,372.034393 
	C181.972870,369.245697 183.229111,368.249817 185.998520,367.941315 
	C188.788559,367.630554 191.487228,366.499756 194.225937,365.728241 
	C194.072998,365.251160 193.920074,364.774078 193.767136,364.296997 
	C181.845978,365.908600 169.924820,367.520203 158.003662,369.131805 
	C158.083298,369.791107 158.162949,370.450439 158.242584,371.109741 
	C164.888611,370.455078 171.534637,369.800446 179.910187,368.975433 
	C174.304443,377.043335 169.676010,384.288452 164.416748,391.042297 
	C161.527588,394.752502 157.623718,399.274384 152.435501,397.322174 
	C146.758240,395.185944 147.615875,389.004730 147.950043,384.161713 
	C149.434128,362.653534 158.538544,344.272217 171.868011,327.735291 
	C172.381424,327.098328 173.050491,326.563049 173.718018,326.078094 
	C177.642807,323.226776 180.736679,324.289215 180.853638,329.084229 
	C180.982040,334.347961 180.046997,339.638519 179.557800,344.915771 
	C179.425110,346.347351 179.229065,347.773071 179.062073,349.201477 
	C179.609451,349.252045 180.156815,349.302612 180.704178,349.353210 
	C182.953552,342.903320 184.506729,336.227386 183.378494,329.319611 
	C182.971542,326.828033 181.221512,323.228973 179.321274,322.653015 
	C177.081360,321.974121 173.252991,323.264404 171.461670,325.052002 
	C167.622040,328.883636 164.233643,333.330139 161.398422,337.975281 
	C152.647949,352.311829 146.111221,367.556854 145.271896,384.606384 
	C144.996826,390.194061 144.906830,396.680725 151.010941,399.485809 
	C157.084274,402.276703 161.496231,397.730530 165.206955,393.724426 
	C169.330750,389.272278 172.840271,384.251160 177.295197,378.620911 
	C176.710648,382.702209 176.255219,385.881927 175.619827,389.899597 
z"/>
<path fill="#FDFDFD" opacity="1.000000" stroke="none" 
	d="
M199.302307,125.300331 
	C207.966034,125.327827 216.630020,125.321121 225.293427,125.389122 
	C253.090424,125.607292 280.925354,125.015663 308.675446,126.278625 
	C353.676392,128.326721 393.476105,160.493103 398.786438,209.453232 
	C403.273010,250.818832 377.183411,291.325439 337.475006,304.948456 
	C325.709198,308.984985 313.673370,311.055786 301.232025,311.021820 
	C278.070648,310.958588 254.908966,311.003784 231.747406,311.003815 
	C216.664627,311.003845 201.581833,311.003815 186.499054,311.003815 
	C186.450592,310.518860 186.402145,310.033875 186.353683,309.548920 
	C210.513214,304.789459 230.287247,292.941620 244.987793,273.161682 
	C259.523254,253.603821 266.232941,231.726440 263.895996,207.056717 
	C232.651703,207.056717 201.567917,207.056717 170.198975,207.056717 
	C170.198975,218.838608 170.198975,230.596207 170.198975,242.828003 
	C185.593414,242.828003 201.144684,242.828003 216.830002,242.828003 
	C211.799347,259.802277 189.254547,272.958435 167.997543,271.715424 
	C143.674103,270.293091 123.139786,251.563049 119.196640,227.202469 
	C114.872826,200.490204 128.316269,174.397217 151.150757,164.961609 
	C170.192627,157.093170 200.999176,160.070007 219.138245,191.285492 
	C229.778732,183.619202 240.380157,175.981049 251.275772,168.130936 
	C239.339020,147.651276 221.675674,134.745377 199.428162,126.696693 
	C199.120102,126.008652 199.211212,125.654495 199.302307,125.300331 
M265.792877,265.488983 
	C265.792877,268.927826 265.792877,272.366669 265.792877,275.246674 
	C281.603943,275.246674 297.061249,276.760956 312.108063,274.920013 
	C340.280029,271.473145 359.440918,247.515350 359.499634,218.333054 
	C359.557922,189.361526 340.786499,165.905426 312.505219,161.985046 
	C298.264374,160.010971 283.600067,161.082977 269.126556,160.813843 
	C268.041473,160.793671 266.950958,161.065521 265.792877,161.210388 
	C265.792877,195.858749 265.792877,230.174500 265.792877,265.488983 
z"/>
<path fill="#E4E4E4" opacity="1.000000" stroke="none" 
	d="
M303.527710,330.208252 
	C292.551361,338.138794 287.616852,348.802216 289.700073,362.639954 
	C289.203369,362.637512 288.706665,362.635101 288.209961,362.632660 
	C287.789978,361.131958 287.106018,359.651031 286.991943,358.127411 
	C286.110168,346.348755 291.345245,337.326233 299.860626,329.754364 
	C302.766388,327.170563 305.433197,324.318024 308.379791,321.420563 
	C308.459229,321.583649 308.951782,322.594910 309.377777,323.469482 
	C312.440125,322.736389 315.441589,321.747772 318.520386,321.332214 
	C327.269409,320.151398 334.465210,325.198944 334.938873,333.961761 
	C335.290619,340.468079 334.453339,347.256348 332.880585,353.605652 
	C329.082733,368.937592 321.508942,382.383270 309.526550,392.838928 
	C305.308716,396.519348 299.923218,398.861633 294.748627,401.213318 
	C290.118408,403.600189 298.454468,409.801117 291.022522,412.398346 
	C290.526886,405.855133 290.050629,399.567963 289.550018,392.959351 
	C290.132507,393.211121 290.906860,393.545776 292.153046,394.084381 
	C296.266205,373.513306 300.388855,352.894592 304.670044,331.608887 
	C304.394958,330.697357 303.961334,330.452789 303.527710,330.208252 
M296.979065,382.599152 
	C296.063232,387.588928 295.147430,392.578674 293.932526,399.197937 
	C298.382843,396.950623 302.094177,395.820068 304.875977,393.550293 
	C322.139038,379.464905 331.220032,360.872406 332.903900,338.906219 
	C333.840393,326.689758 326.145477,321.438934 314.254791,324.638947 
	C309.677704,325.870728 307.646698,328.079773 306.787231,332.929749 
	C303.892670,349.263123 300.363922,365.484070 296.979065,382.599152 
z"/>
<path fill="#E8E8E8" opacity="1.000000" stroke="none" 
	d="
M372.634491,370.156647 
	C374.737305,369.011169 376.840118,367.865723 378.942932,366.720245 
	C378.458679,369.410736 378.313812,372.228394 377.370178,374.746765 
	C376.746521,376.411255 374.975861,377.645966 372.782715,380.135620 
	C383.499969,379.263062 387.399323,371.232300 393.260010,365.574524 
	C393.615143,366.380707 394.038483,367.030640 393.929108,367.138062 
	C388.909943,372.066956 384.106232,377.279999 378.614075,381.620575 
	C377.091187,382.824188 373.508331,381.421295 370.050415,381.149841 
	C368.909760,384.166534 367.278625,388.480286 365.647491,392.794037 
	C365.063202,392.639343 364.478943,392.484680 363.894653,392.330017 
	C364.936646,386.678497 365.978638,381.026947 367.193146,374.439819 
	C364.875275,376.787506 363.441040,378.901123 361.453003,380.083771 
	C359.060150,381.507324 355.706909,383.470520 353.680054,382.724915 
	C351.804626,382.034973 351.062134,378.107819 349.972870,375.541687 
	C349.675903,374.842010 349.927795,373.909393 349.927795,371.909363 
	C346.279144,373.836761 343.096497,375.358307 340.079132,377.157104 
	C337.100220,378.932953 334.169830,378.008881 332.901886,374.627869 
	C331.281067,370.305786 334.691132,363.529114 339.273407,362.761139 
	C340.328949,362.584229 342.296539,364.338593 342.864838,365.633972 
	C343.612244,367.337616 343.390564,369.466431 343.776154,373.313934 
	C347.456848,370.205139 350.094482,367.789917 352.940643,365.652313 
	C354.369293,364.579346 356.177307,364.011536 357.813751,363.215271 
	C358.293915,365.036499 358.774078,366.857758 359.254211,368.678986 
	C358.784393,368.829468 358.314545,368.979950 357.844696,369.130432 
	C357.164001,368.277069 356.483307,367.423706 355.802612,366.570312 
	C355.319122,366.536591 354.835632,366.502838 354.352142,366.469116 
	C353.717560,370.251038 352.577454,374.036163 352.601440,377.813904 
	C352.622284,381.092316 355.610382,382.456726 357.719421,379.935364 
	C362.215149,374.560699 367.230469,369.068756 369.745758,362.718933 
	C373.509094,353.218384 375.106750,342.879181 378.046448,333.022247 
	C379.013092,329.781097 381.285706,326.929413 382.961151,323.899658 
	C383.695801,324.133057 384.430481,324.366486 385.165131,324.599884 
	C385.017517,326.699677 385.276611,328.933838 384.636841,330.871094 
	C383.339172,334.800476 381.991669,338.830811 379.882538,342.350891 
	C375.159424,350.233643 373.271973,358.932373 371.323914,368.414581 
	C370.883667,370.002228 370.661774,370.910858 370.439850,371.819458 
	C370.645782,371.923065 370.851685,372.026642 371.057587,372.130219 
	C371.583221,371.472351 372.108856,370.814514 372.634491,370.156647 
M339.821655,372.834229 
	C338.579956,371.429291 337.338287,370.024353 336.096588,368.619415 
	C335.692780,368.720398 335.288940,368.821381 334.885101,368.922363 
	C335.324463,371.051636 335.763824,373.180878 336.203186,375.310120 
	C337.486816,374.716156 338.770447,374.122192 339.821655,372.834229 
z"/>
<path fill="#E2E2E2" opacity="1.000000" stroke="none" 
	d="
M175.709808,389.480591 
	C176.255219,385.881927 176.710648,382.702209 177.295197,378.620911 
	C172.840271,384.251160 169.330750,389.272278 165.206955,393.724426 
	C161.496231,397.730530 157.084274,402.276703 151.010941,399.485809 
	C144.906830,396.680725 144.996826,390.194061 145.271896,384.606384 
	C146.111221,367.556854 152.647949,352.311829 161.398422,337.975281 
	C164.233643,333.330139 167.622040,328.883636 171.461670,325.052002 
	C173.252991,323.264404 177.081360,321.974121 179.321274,322.653015 
	C181.221512,323.228973 182.971542,326.828033 183.378494,329.319611 
	C184.506729,336.227386 182.953552,342.903320 180.704178,349.353210 
	C180.156815,349.302612 179.609451,349.252045 179.062073,349.201477 
	C179.229065,347.773071 179.425110,346.347351 179.557800,344.915771 
	C180.046997,339.638519 180.982040,334.347961 180.853638,329.084229 
	C180.736679,324.289215 177.642807,323.226776 173.718018,326.078094 
	C173.050491,326.563049 172.381424,327.098328 171.868011,327.735291 
	C158.538544,344.272217 149.434128,362.653534 147.950043,384.161713 
	C147.615875,389.004730 146.758240,395.185944 152.435501,397.322174 
	C157.623718,399.274384 161.527588,394.752502 164.416748,391.042297 
	C169.676010,384.288452 174.304443,377.043335 179.910187,368.975433 
	C171.534637,369.800446 164.888611,370.455078 158.242584,371.109741 
	C158.162949,370.450439 158.083298,369.791107 158.003662,369.131805 
	C169.924820,367.520203 181.845978,365.908600 193.767136,364.296997 
	C193.920074,364.774078 194.072998,365.251160 194.225937,365.728241 
	C191.487228,366.499756 188.788559,367.630554 185.998520,367.941315 
	C183.229111,368.249817 181.972870,369.245697 181.510941,372.034393 
	C179.663803,383.185638 177.533432,394.290253 175.717285,405.446228 
	C175.282013,408.119873 175.652664,410.924683 175.652664,413.669189 
	C174.799637,413.652130 173.946609,413.635040 173.093582,413.617981 
	C172.080627,405.615234 174.411438,397.786652 175.709808,389.480591 
z"/>
<path fill="#E4E4E4" opacity="1.000000" stroke="none" 
	d="
M254.589233,375.059875 
	C259.103271,371.852112 263.617310,368.644348 268.131348,365.436584 
	C268.503998,365.861603 268.876678,366.286652 269.249329,366.711700 
	C268.375671,367.586914 267.650482,368.744690 266.605469,369.293762 
	C255.577072,375.088287 250.354202,384.108734 248.754471,396.547516 
	C247.586319,405.630615 243.921112,414.437714 240.928772,423.217804 
	C239.811600,426.495789 238.074738,431.236481 233.810089,430.188812 
	C229.348846,429.092804 229.938736,424.022369 230.200424,420.323364 
	C231.202728,406.155884 237.806458,394.439575 246.365295,383.460846 
	C248.986816,380.098083 250.197723,375.635681 251.374283,371.272217 
	C247.908615,372.766998 245.974579,378.317322 242.329849,373.879913 
	C238.770142,376.052063 235.493469,378.730988 231.752655,379.829956 
	C230.878052,380.086853 228.429871,374.987366 225.926941,371.162170 
	C225.514114,371.883362 224.825012,373.087219 223.516235,374.133911 
	C222.662430,373.716095 222.428284,373.455383 222.358521,372.905884 
	C224.690140,370.361053 226.857361,368.105103 229.024567,365.849121 
	C229.927399,369.927917 230.830231,374.006744 231.911438,378.891510 
	C239.322235,374.489258 241.015396,367.573334 243.520370,361.228851 
	C243.919174,361.352570 244.317978,361.476318 244.716782,361.600067 
	C244.441772,365.186249 244.166748,368.772400 243.891739,372.358582 
	C244.396378,372.542633 244.901031,372.726685 245.405670,372.910736 
	C248.044998,369.364746 250.684326,365.818756 253.323654,362.272797 
	C253.805374,362.431030 254.287079,362.589294 254.768799,362.747528 
	C254.289597,366.062073 253.810394,369.376587 253.220612,373.383606 
	C253.141205,374.676483 253.172348,375.276855 253.203491,375.877228 
	C253.665405,375.604797 254.127319,375.332336 254.589233,375.059875 
M236.885315,403.397644 
	C232.142151,414.871735 231.378311,423.453094 235.161911,428.403595 
	C243.388824,415.677612 245.591782,401.509674 248.277679,387.493225 
	C247.684982,387.211823 247.092270,386.930420 246.499573,386.649017 
	C243.378693,391.992584 240.257812,397.336151 236.885315,403.397644 
M248.414719,384.483490 
	C248.414719,384.483490 248.522888,384.419647 248.414719,384.483490 
z"/>
<path fill="#E4E4E4" opacity="1.000000" stroke="none" 
	d="
M202.481094,365.714630 
	C204.773712,364.636627 207.066315,363.558624 210.754105,361.824585 
	C209.536972,366.381439 208.643158,369.477478 207.891006,372.607574 
	C206.962524,376.471375 206.050400,380.346100 205.380814,384.258850 
	C205.255722,384.989807 206.307007,385.922058 206.815430,386.761414 
	C207.575989,386.179138 208.598511,385.753876 209.056290,384.990112 
	C213.283890,377.936615 217.226929,370.705536 221.643143,363.774841 
	C224.251648,359.681152 227.794815,359.176422 230.260239,361.970612 
	C230.572479,362.324493 229.967819,363.487427 229.246964,363.999573 
	C227.256241,363.838562 224.962631,363.425812 224.503540,364.160095 
	C222.566116,367.258820 221.175430,370.699341 219.584763,374.014862 
	C219.966919,374.169403 220.349060,374.323944 220.731216,374.478485 
	C221.218857,374.050537 221.706482,373.622620 222.194122,373.194702 
	C222.428284,373.455383 222.662430,373.716095 223.234299,374.379547 
	C221.906891,376.824585 220.418472,379.611511 217.903671,376.741058 
	C214.584534,380.402344 211.268585,384.176727 207.795486,387.800507 
	C207.030273,388.598907 205.326904,389.546356 204.730774,389.214020 
	C203.827057,388.710175 202.899094,387.051331 203.052872,386.047333 
	C203.926575,380.343140 205.118774,374.687744 206.441574,368.455994 
	C206.296494,367.678680 205.912491,367.461151 205.528488,367.243622 
	C200.029053,369.379761 197.106888,368.786682 195.892807,365.287903 
	C194.628632,361.644745 198.189377,354.432098 201.932404,353.204407 
	C204.604980,352.327850 205.478897,353.953430 204.895081,356.069458 
	C204.153809,358.756104 202.827377,361.281311 201.430267,364.430145 
	C201.565201,365.227631 202.023148,365.471130 202.481094,365.714630 
z"/>
<path fill="#171717" opacity="1.000000" stroke="none" 
	d="
M222.358521,372.905884 
	C221.706482,373.622620 221.218857,374.050537 220.731216,374.478485 
	C220.349060,374.323944 219.966919,374.169403 219.584763,374.014862 
	C221.175430,370.699341 222.566116,367.258820 224.503540,364.160095 
	C224.962631,363.425812 227.256241,363.838562 228.916656,363.987122 
	C229.120285,364.517670 229.113235,364.784760 229.065369,365.450470 
	C226.857361,368.105103 224.690140,370.361053 222.358521,372.905884 
z"/>
<path fill="#5A5A5A" opacity="1.000000" stroke="none" 
	d="
M198.928009,125.129448 
	C199.211212,125.654495 199.120102,126.008652 199.069443,126.636017 
	C197.468933,126.509583 195.827988,126.109955 194.187042,125.710327 
	C194.190704,125.459740 194.194382,125.209152 194.198044,124.958565 
	C195.649948,124.958565 197.101837,124.958565 198.928009,125.129448 
z"/>
<path fill="#000000" opacity="1.000000" stroke="none" 
	d="
M265.792877,264.989624 
	C265.792877,230.174500 265.792877,195.858749 265.792877,161.210388 
	C266.950958,161.065521 268.041473,160.793671 269.126556,160.813843 
	C283.600067,161.082977 298.264374,160.010971 312.505219,161.985046 
	C340.786499,165.905426 359.557922,189.361526 359.499634,218.333054 
	C359.440918,247.515350 340.280029,271.473145 312.108063,274.920013 
	C297.061249,276.760956 281.603943,275.246674 265.792877,275.246674 
	C265.792877,272.366669 265.792877,268.927826 265.792877,264.989624 
z"/>
<path fill="#030303" opacity="1.000000" stroke="none" 
	d="
M297.028412,382.173584 
	C300.363922,365.484070 303.892670,349.263123 306.787231,332.929749 
	C307.646698,328.079773 309.677704,325.870728 314.254791,324.638947 
	C326.145477,321.438934 333.840393,326.689758 332.903900,338.906219 
	C331.220032,360.872406 322.139038,379.464905 304.875977,393.550293 
	C302.094177,395.820068 298.382843,396.950623 293.932526,399.197937 
	C295.147430,392.578674 296.063232,387.588928 297.028412,382.173584 
z"/>
<path fill="#000000" opacity="1.000000" stroke="none" 
	d="
M303.766785,330.539551 
	C303.961334,330.452789 304.394958,330.697357 304.688110,331.212219 
	C304.367035,331.278595 304.186432,331.074707 303.766785,330.539551 
z"/>
<path fill="#212121" opacity="1.000000" stroke="none" 
	d="
M339.937866,373.181244 
	C338.770447,374.122192 337.486816,374.716156 336.203186,375.310120 
	C335.763824,373.180878 335.324463,371.051636 334.885101,368.922363 
	C335.288940,368.821381 335.692780,368.720398 336.096588,368.619415 
	C337.338287,370.024353 338.579956,371.429291 339.937866,373.181244 
z"/>
<path fill="#000000" opacity="1.000000" stroke="none" 
	d="
M372.349762,369.725342 
	C372.108856,370.814514 371.583221,371.472351 371.057587,372.130219 
	C370.851685,372.026642 370.645782,371.923065 370.439850,371.819458 
	C370.661774,370.910858 370.883667,370.002228 371.250000,368.800537 
	C371.617950,368.769623 371.841492,369.031830 372.349762,369.725342 
z"/>
<path fill="#090909" opacity="1.000000" stroke="none" 
	d="
M237.011139,403.038666 
	C240.257812,397.336151 243.378693,391.992584 246.499573,386.649017 
	C247.092270,386.930420 247.684982,387.211823 248.277679,387.493225 
	C245.591782,401.509674 243.388824,415.677612 235.161911,428.403595 
	C231.378311,423.453094 232.142151,414.871735 237.011139,403.038666 
z"/>
<path fill="#000000" opacity="1.000000" stroke="none" 
	d="
M254.303925,374.650818 
	C254.127319,375.332336 253.665405,375.604797 253.203491,375.877228 
	C253.172348,375.276855 253.141205,374.676483 253.229034,373.789795 
	C253.571533,373.749573 253.795074,373.995667 254.303925,374.650818 
z"/>
<path fill="#E3E3E3" opacity="1.000000" stroke="none" 
	d="
M248.468811,384.451569 
	C248.522888,384.419647 248.414719,384.483490 248.468811,384.451569 
z"/>
<path fill="#000000" opacity="1.000000" stroke="none" 
	d="
M202.246414,365.399536 
	C202.023148,365.471130 201.565201,365.227631 201.284515,364.753723 
	C201.645096,364.710358 201.828415,364.897400 202.246414,365.399536 
z"/>
<path fill="#000000" opacity="1.000000" stroke="none" 
	d="
M205.696289,367.501251 
	C205.912491,367.461151 206.296494,367.678680 206.463486,368.068298 
	C206.119003,368.079895 205.991531,367.919373 205.696289,367.501251 
z"/>
</svg>