<svg xmlns="http://www.w3.org/2000/svg" viewBox="0 10 192.25 50" data-asc="0.92" width="192.25" height="50"><defs/><g><g><g transform="translate(0, 0)"><path d="M9.95 50.35Q7.20 50.35 4.95 48.88Q2.70 47.40 1.35 44.60Q0 41.80 0 37.85Q0 34 1.20 30.05Q2.40 26.10 4.48 22.52Q6.55 18.95 9.25 16.13Q11.95 13.30 14.93 11.67Q17.90 10.05 20.90 10.05Q23.00 10.05 24.25 10.88Q25.50 11.70 26.05 13.02Q26.60 14.35 26.60 15.85Q26.60 17.60 25.98 19.32Q25.35 21.05 24.30 22.20Q23.25 23.35 22.00 23.35Q21.45 23.35 20.98 23.02Q20.50 22.70 20.10 21.85Q20.80 21.35 21.73 20.07Q22.65 18.80 23.35 17.25Q24.05 15.70 24.05 14.45Q24.05 13.40 23.40 12.70Q22.75 12 21.25 12Q19.00 12 16.65 13.70Q14.30 15.40 12.15 18.22Q10 21.05 8.25 24.55Q6.50 28.05 5.50 31.67Q4.50 35.30 4.50 38.55Q4.50 43.10 6.45 45.65Q8.40 48.20 11.20 48.20Q13.20 48.20 14.95 46.85Q16.70 45.50 18.03 43.33Q19.35 41.15 20.15 38.60Q20.95 36.05 21.15 33.65Q19.70 33.35 18.45 33.23Q17.20 33.10 15.90 33.10Q15.15 33.10 14.38 33.13Q13.60 33.15 12.70 33.15Q13.10 31.50 14.05 30.77Q15 30.05 16.45 30.05Q17.95 30.05 19.48 30.52Q21.00 31 22.53 31.55Q24.05 32.10 25.40 32.40L24.95 34Q24.05 36.65 23.48 38.50Q22.90 40.35 22.58 41.67Q22.25 43 22.15 44.05Q22.05 45.10 22.05 46.10Q22.05 47.10 22.10 48.15Q22.15 49.20 22.20 50.55Q20.95 50.30 20.25 49.70Q19.55 49.10 19.30 48.25Q19.05 47.40 19.05 46.55Q19.05 46.20 19.08 45.85Q19.10 45.50 19.20 45.10Q17.45 47.40 15.15 48.88Q12.85 50.35 9.95 50.35ZM35.80 47.30Q34 47.30 32.90 46.35Q31.80 45.40 31.80 43.80Q31.80 42.40 32.50 40.77Q33.20 39.15 33.93 37.58Q34.65 36 34.65 34.75Q34.65 33.45 33.83 32.67Q33 31.90 32.05 31.35Q30.90 34.20 29.58 36.80Q28.25 39.40 27.40 40.80L26.75 39.55Q27.45 38.25 28.60 35.83Q29.75 33.40 30.80 30.35Q30.30 29.85 30.30 29.05Q30.30 27.70 31.13 26.60Q31.95 25.50 32.60 25.50Q33.15 25.50 33.38 26.13Q33.60 26.75 33.60 27Q33.60 27.25 33.35 27.93Q33.10 28.60 33.05 28.85Q33.05 29.45 33.88 29.97Q34.70 30.50 35.73 31.23Q36.75 31.95 37.55 32.98Q38.35 34 38.35 35.60Q38.35 37.10 37.70 38.60Q37.05 40.10 36.40 41.45Q35.75 42.80 35.75 43.75Q35.75 44.55 36.15 44.80Q36.55 45.05 37.10 45.05Q38.30 45.05 39.60 44.30Q40.90 43.55 42.13 42.40Q43.35 41.25 44.30 39.98Q45.25 38.70 45.75 37.65L46.75 38.40Q45.80 40.55 44.05 42.60Q42.30 44.65 40.15 45.98Q38 47.30 35.80 47.30ZM47.30 48.35Q45.70 48.35 44.53 47.27Q43.35 46.20 43.35 44.05Q43.35 42.25 44.15 40.20Q44.95 38.15 46.35 36.15Q47.75 34.15 49.55 32.50Q51.35 30.85 53.38 29.85Q55.40 28.85 57.40 28.85Q59.50 28.85 60.93 29.93Q62.35 31 62.35 32.75Q62.35 34.10 61.50 34.65Q60.65 35.20 59.40 35Q59.50 34.60 59.58 34.13Q59.65 33.65 59.65 33.20Q59.65 32.15 59.20 31.35Q58.75 30.55 57.45 30.55Q56.05 30.55 54.60 31.50Q53.15 32.45 51.80 34Q50.45 35.55 49.40 37.40Q48.35 39.25 47.75 41.05Q47.15 42.85 47.15 44.25Q47.15 45.95 48.40 45.95Q49.55 45.95 50.93 44.85Q52.30 43.75 53.73 42.05Q55.15 40.35 56.45 38.58Q57.75 36.80 58.70 35.45Q58.90 35.20 59.05 35.20Q59.30 35.25 59.85 35.42Q60.40 35.60 60.85 35.90Q61.30 36.20 61.30 36.70Q61.30 37.20 60.85 37.98Q60.40 38.75 59.85 39.70Q59.30 40.65 58.85 41.60Q58.40 42.55 58.40 43.45Q58.40 44.10 58.78 44.73Q59.15 45.35 60.00 45.35Q61.25 45.35 63.43 43.52Q65.60 41.70 67.85 37.55L68.65 38.35Q67.50 41.05 65.83 43.10Q64.15 45.15 62.30 46.33Q60.45 47.50 58.60 47.50Q56.60 47.50 55.65 46.27Q54.70 45.05 54.60 43.60Q54.60 43.45 54.63 43.27Q54.65 43.10 54.65 42.95Q52.60 45.50 50.90 46.92Q49.20 48.35 47.30 48.35ZM69 60Q67.75 60 66.73 59.25Q65.70 58.50 65.70 56.95Q65.70 55.35 66.60 54.08Q67.50 52.80 68.95 51.75Q70.40 50.70 72.13 49.80Q73.85 48.90 75.55 48.05Q76.15 46.50 76.85 44.25Q77.55 42 78.10 39.80Q76.55 42.10 74.78 43.83Q73 45.55 70.85 45.55Q69.95 45.55 68.98 45.17Q68 44.80 67.35 43.88Q66.70 42.95 66.70 41.45Q66.70 40.10 67.17 38.25Q67.65 36.40 68.38 34.65Q69.10 32.90 69.88 31.73Q70.65 30.55 71.25 30.55Q71.50 30.55 72.05 30.75Q72.60 30.95 73.13 31.30Q73.65 31.65 73.75 32.05Q73.30 32.65 72.75 33.80Q72.20 34.95 71.70 36.35Q71.20 37.75 70.88 39.10Q70.55 40.45 70.55 41.40Q70.55 42.20 70.88 42.75Q71.20 43.30 72.10 43.30Q73.15 43.30 74.33 42.40Q75.50 41.50 76.65 40.08Q77.80 38.65 78.70 37.15Q78.85 36.70 78.95 36.02Q79.05 35.35 79.25 34.60Q79.45 33.80 80.08 33.02Q80.70 32.25 81.85 32.25Q82.20 32.25 82.53 32.30Q82.85 32.35 83.30 32.45Q83.30 33.20 82.78 35.38Q82.25 37.55 81.40 40.42Q80.55 43.30 79.45 46.20Q81.65 45.35 83.90 43.33Q86.15 41.30 87.55 37.75L88.35 38.35Q87.60 40.85 86.08 42.67Q84.55 44.50 82.65 45.77Q80.75 47.05 78.85 47.90Q77.50 51.15 75.95 53.92Q74.40 56.70 72.67 58.35Q70.95 60 69 60M68.60 58.25Q69.50 58.25 71.23 56.25Q72.95 54.25 74.75 49.95Q73 50.85 71.35 51.92Q69.70 53 68.60 54.20Q67.50 55.40 67.50 56.80Q67.50 57.25 67.75 57.75Q68 58.25 68.60 58.25ZM108.55 50.35Q106.90 50.35 105.38 49.90Q103.85 49.45 102.75 47.95Q103.05 46.35 103.67 43.88Q104.30 41.40 105.15 38.48Q106 35.55 106.92 32.55Q107.85 29.55 108.72 26.85Q109.60 24.15 110.30 22.13Q111 20.10 111.35 19.15Q111.50 18.75 111.85 17.95Q112.20 17.15 112.72 16.32Q113.25 15.50 113.95 14.92Q114.65 14.35 115.50 14.35Q116.30 14.35 117.20 14.95Q115.65 18.50 114.08 22.80Q112.50 27.10 111.08 31.65Q109.65 36.20 108.45 40.52Q107.25 44.85 106.50 48.40Q107 48.55 107.65 48.63Q108.30 48.70 108.90 48.70Q112.10 48.70 115.08 47.15Q118.05 45.60 120.55 43Q123.05 40.40 124.92 37.10Q126.80 33.80 127.83 30.25Q128.85 26.70 128.85 23.40Q128.85 19.35 127.50 16.77Q126.15 14.20 123.80 13Q121.45 11.80 118.35 11.80Q115.10 11.80 112.50 13.02Q109.90 14.25 108.42 16.32Q106.95 18.40 106.95 21.05Q106.95 21.65 107.05 22.20Q107.15 22.75 107.30 23.30Q105.35 23.30 104.50 22.40Q103.65 21.50 103.65 20.20Q103.65 18.45 104.92 16.67Q106.20 14.90 108.42 13.38Q110.65 11.85 113.60 10.92Q116.55 10 119.95 10Q124.70 10 127.58 11.85Q130.45 13.70 131.75 16.85Q133.05 20 133.05 23.90Q133.05 28.20 131.70 32.15Q130.35 36.10 127.92 39.40Q125.50 42.70 122.38 45.17Q119.25 47.65 115.70 49Q112.15 50.35 108.55 50.35ZM135.95 47.60Q133.75 47.60 132.90 46.17Q132.05 44.75 132.05 42.95Q132.05 41.35 132.55 39.70Q133.05 38.05 133.90 36.60Q134.75 35.15 135.80 34.25Q136.85 33.35 137.95 33.35Q138.25 33.35 138.67 33.48Q139.10 33.60 139.30 33.80Q138.75 34.40 138.13 35.50Q137.50 36.60 136.97 37.88Q136.45 39.15 136.13 40.42Q135.80 41.70 135.80 42.75Q135.80 43.90 136.20 44.55Q136.60 45.20 137.50 45.20Q138.50 45.20 139.88 44.13Q141.25 43.05 142.50 41.50Q140.95 40.15 140.22 38.38Q139.50 36.60 139.50 34.35Q139.50 33.10 140.05 31.70Q140.60 30.30 141.75 29.35Q142.90 28.40 144.75 28.40Q146.85 28.40 147.67 29.57Q148.50 30.75 148.50 32.40Q148.50 34.25 147.53 36.58Q146.55 38.90 145.20 41Q145.90 41.40 146.75 41.40Q147.50 41.40 148.55 41.05Q149.60 40.70 150.57 39.88Q151.55 39.05 152.15 37.70L152.95 38.30Q151.90 40.75 150.07 41.88Q148.25 43 146.55 43Q145.90 43 145.25 42.88Q144.60 42.75 144.05 42.50Q142.35 44.60 140.22 46.10Q138.10 47.60 135.95 47.60M143.65 40Q144.90 38.25 145.72 36.23Q146.55 34.20 146.55 32.50Q146.55 31.25 146.17 30.67Q145.80 30.10 145.15 30.10Q144.15 30.10 143.15 31.48Q142.15 32.85 142.15 34.95Q142.15 36.15 142.53 37.63Q142.90 39.10 143.65 40ZM156.65 48.80Q154.10 48.80 152.45 47.17Q150.80 45.55 150.80 42.25Q150.80 39.80 151.78 37.45Q152.75 35.10 154.35 33.20Q155.95 31.30 157.90 30.20Q159.85 29.10 161.85 29.10Q163.95 29.10 164.82 30.20Q165.70 31.30 165.70 32.65Q165.70 34.10 165.03 35.35Q164.35 36.60 163.20 36.60Q162.25 36.60 161.65 35.70Q162.25 35.35 162.80 34.30Q163.35 33.25 163.35 31.90Q163.35 31.40 163.15 31.15Q162.95 30.90 162.35 30.90Q161.05 30.90 159.67 32.05Q158.30 33.20 157.10 35.02Q155.90 36.85 155.15 38.85Q154.40 40.85 154.40 42.60Q154.40 44.05 155.15 45.25Q155.90 46.45 158 46.45Q159.95 46.45 161.97 45.35Q164 44.25 165.80 42.25Q167.60 40.25 168.65 37.50L169.55 38.30Q168.35 41.30 166.28 43.67Q164.20 46.05 161.67 47.42Q159.15 48.80 156.65 48.80ZM183.10 47.90Q181.60 47.90 180.50 46.92Q179.40 45.95 178.75 44.45Q178.10 42.95 177.78 41.40Q177.45 39.85 177.45 38.70Q178.10 38.60 179.15 38.30Q180.20 38 181.30 37.48Q182.40 36.95 183.15 36.13Q183.90 35.30 183.90 34.15Q183.90 33.20 183.25 32.63Q182.60 32.05 181.60 32.05Q180.15 32.05 178.85 33.02Q177.55 34 176.47 35.58Q175.40 37.15 174.55 38.98Q173.70 40.80 173.05 42.48Q172.40 44.15 171.95 45.35Q171.50 46.65 170.97 47.10Q170.45 47.55 169.60 47.55Q169.10 47.55 168.65 47.17Q168.20 46.80 167.97 45.90Q167.75 45 167.75 43.50Q167.75 40.60 168.60 37.02Q169.45 33.45 170.88 29.70Q172.30 25.95 174 22.50Q175.70 19.05 177.42 16.30Q179.15 13.55 180.65 11.92Q182.15 10.30 183.10 10.30Q183.90 10.30 184.42 11.30Q184.95 12.30 184.95 13.80Q184.95 15.50 184.20 17.60Q183.45 19.70 182.07 21.82Q180.70 23.95 178.82 25.85Q176.95 27.75 174.65 29.10Q173.20 32.65 172.42 36.05Q171.65 39.45 171.50 41.95Q172.35 39.90 173.50 37.67Q174.65 35.45 176.07 33.45Q177.50 31.45 179.15 30.23Q180.80 29 182.65 29Q184.60 29 186.03 30.35Q187.45 31.70 187.45 33.75Q187.45 35.25 186.63 36.38Q185.80 37.50 184.63 38.20Q183.45 38.90 182.28 39.25Q181.10 39.60 180.30 39.60Q180.40 40.20 180.65 41.20Q180.90 42.20 181.38 43.23Q181.85 44.25 182.55 44.95Q183.25 45.65 184.20 45.65Q185.55 45.65 186.85 44.52Q188.15 43.40 189.40 41.52Q190.65 39.65 191.65 37.35L192.25 38.10Q191.45 40.55 190 42.83Q188.55 45.10 186.75 46.50Q184.95 47.90 183.10 47.90M175.90 26.20Q177.60 24.75 179.17 22.80Q180.75 20.85 181.78 18.77Q182.80 16.70 182.85 15.05Q182.85 14.90 182.82 14.85Q182.80 14.80 182.80 14.80Q182.30 14.90 181.17 16.50Q180.05 18.10 178.65 20.63Q177.25 23.15 175.90 26.20Z"/></g><g transform="translate(0, 64)"><path d=""/></g></g></g></svg>